<?xml version="1.0" standalone="no"?>
<!DOCTYPE svg PUBLIC "-//W3C//DTD SVG 20010904//EN"
 "http://www.w3.org/TR/2001/REC-SVG-20010904/DTD/svg10.dtd">
<svg version="1.0" xmlns="http://www.w3.org/2000/svg"
 width="512.000000pt" height="512.000000pt" viewBox="0 0 512.000000 512.000000"
 preserveAspectRatio="xMidYMid meet">
<metadata>
Created by potrace 1.11, written by Peter Selinger 2001-2013
</metadata>
<g transform="translate(0.000000,512.000000) scale(0.100000,-0.100000)"
fill="#000000" stroke="none">
<path d="M2370 4484 c-14 -2 -59 -9 -100 -15 -263 -38 -535 -144 -775 -304
-398 -264 -684 -669 -799 -1134 -45 -178 -51 -237 -51 -466 0 -229 6 -288 51
-466 85 -342 256 -643 508 -895 252 -252 553 -423 895 -508 178 -45 237 -51
466 -51 229 0 288 6 466 51 465 115 870 401 1134 799 129 194 216 388 269 604
45 178 51 237 51 466 0 229 -6 288 -51 466 -115 465 -401 870 -799 1134 -233
155 -462 247 -750 302 -76 14 -457 27 -515 17z m-502 -840 l22 -6 -2 -454 -3
-454 673 -2 672 -3 0 463 0 462 150 0 150 0 0 -1090 0 -1090 -150 0 -150 0 0
480 0 480 -670 0 -670 0 0 -480 0 -480 -150 0 -150 0 0 1090 0 1090 128 0 c70
0 137 -3 150 -6z"/>
</g>
</svg>
